<svg width="24" height="24" viewBox="0 0 24 24" fill="none" xmlns="http://www.w3.org/2000/svg">
<path d="M20.216 6.41502L20.084 5.74902C19.965 5.15102 19.696 4.58602 19.083 4.37002C18.886 4.30102 18.663 4.27202 18.513 4.12902C18.361 3.98602 18.317 3.76302 18.282 3.55702C18.217 3.17902 18.157 2.80102 18.09 2.42402C18.033 2.09902 17.988 1.73402 17.84 1.43702C17.645 1.03702 17.243 0.803022 16.844 0.649022C16.6392 0.572451 16.4302 0.507678 16.218 0.455022C15.218 0.192022 14.168 0.0950219 13.141 0.0390219C11.9078 -0.0287843 10.6713 -0.00806443 9.44099 0.101022C8.52599 0.184022 7.56099 0.285022 6.69099 0.601022C6.37299 0.717022 6.04499 0.857022 5.80299 1.10202C5.50599 1.40402 5.40999 1.87202 5.62599 2.24802C5.77999 2.51502 6.04099 2.70402 6.31799 2.82802C6.67799 2.99002 7.05499 3.11202 7.44099 3.19402C8.51599 3.43202 9.62999 3.52502 10.728 3.56402C11.946 3.61402 13.165 3.57402 14.378 3.44602C14.677 3.41302 14.976 3.37302 15.274 3.32702C15.626 3.27302 15.852 2.81402 15.748 2.49302C15.624 2.11002 15.291 1.96202 14.914 2.02002C14.448 2.09402 13.954 2.12802 13.532 2.16602C12.355 2.24602 11.174 2.24802 9.99599 2.17202C9.60946 2.14644 9.22366 2.11076 8.83899 2.06502C8.75299 2.05502 8.65899 2.04002 8.58099 2.02902C8.33799 1.99302 8.09699 1.94902 7.85699 1.89902C7.74599 1.87202 7.74599 1.71402 7.85699 1.68702H7.86199C8.13899 1.62702 8.41899 1.57902 8.69999 1.54002H8.70199C8.83299 1.53102 8.96499 1.50802 9.09599 1.49202C10.2339 1.37392 11.3786 1.33382 12.522 1.37202C13.196 1.39102 13.869 1.43902 14.539 1.51602L14.767 1.54702C15.034 1.58702 15.3 1.63502 15.565 1.69202C15.957 1.77702 16.46 1.80502 16.635 2.23402C16.69 2.37102 16.715 2.52202 16.746 2.66502L17.065 4.14902C17.0718 4.18084 17.0719 4.21371 17.0654 4.24559C17.0589 4.27747 17.0459 4.30767 17.0273 4.33431C17.0086 4.36095 16.9846 4.38346 16.9569 4.40044C16.9292 4.41743 16.8982 4.42852 16.866 4.43302H16.863C16.826 4.43902 16.788 4.44302 16.751 4.44802C15.178 4.64871 13.5937 4.74725 12.008 4.74302C10.4368 4.7414 8.8673 4.63986 7.30899 4.43902C7.16899 4.42202 7.01599 4.39702 6.89199 4.37902C6.56599 4.33102 6.24299 4.27102 5.91899 4.21802C5.52599 4.15302 5.15099 4.18602 4.79599 4.37902C4.50599 4.53902 4.26899 4.78302 4.12099 5.08002C3.96699 5.39602 3.92199 5.74002 3.85399 6.08002C3.78499 6.42002 3.67799 6.78702 3.71899 7.13602C3.80599 7.88902 4.33199 8.50102 5.08899 8.63802C8.83246 9.30608 12.6525 9.43271 16.432 9.01402C16.5038 9.00585 16.5765 9.0139 16.6448 9.03757C16.7131 9.06124 16.7752 9.09993 16.8265 9.15079C16.8779 9.20165 16.9171 9.26339 16.9414 9.33144C16.9658 9.3995 16.9745 9.47214 16.967 9.54402L16.896 10.241L15.878 20.148C15.837 20.558 15.831 20.98 15.753 21.385C15.631 22.022 15.2 22.413 14.571 22.556C13.994 22.687 13.406 22.756 12.815 22.761C12.159 22.765 11.505 22.736 10.849 22.739C10.15 22.743 9.29299 22.679 8.75399 22.159C8.27899 21.701 8.21399 20.985 8.14899 20.366L7.41799 13.353L7.09599 10.259C7.05899 9.90802 6.80999 9.56402 6.41799 9.58102C6.08199 9.59602 5.69999 9.88102 5.73999 10.26L5.96799 12.445L6.91699 21.557C7.06399 22.901 8.09099 23.625 9.36299 23.829C10.105 23.949 10.866 23.973 11.62 23.985C12.586 24.001 13.562 24.038 14.512 23.863C15.92 23.605 16.977 22.665 17.128 21.206C17.468 17.874 17.811 14.543 18.152 11.211L18.367 9.12402C18.3776 9.02053 18.4212 8.92321 18.4915 8.84647C18.5617 8.76974 18.6548 8.71769 18.757 8.69802C19.159 8.62002 19.544 8.48602 19.831 8.18002C20.286 7.69202 20.377 7.05702 20.216 6.41502ZM18.738 7.18702C18.593 7.32402 18.375 7.38802 18.16 7.42002C15.744 7.77902 13.294 7.96002 10.852 7.88002C9.10399 7.82002 7.37499 7.62602 5.64499 7.38202C5.47499 7.35802 5.29199 7.32702 5.17499 7.20202C4.95499 6.96602 5.06399 6.49202 5.12099 6.20702C5.17299 5.94702 5.27299 5.59802 5.58399 5.56102C6.06799 5.50402 6.62999 5.70902 7.10999 5.78102C7.68699 5.86902 8.26599 5.94002 8.84699 5.99302C11.327 6.21902 13.849 6.18302 16.319 5.85302C16.769 5.79302 17.218 5.72302 17.664 5.64302C18.063 5.57102 18.504 5.43702 18.744 5.84902C18.91 6.13002 18.932 6.50602 18.906 6.82302C18.8981 6.96146 18.8377 7.09166 18.737 7.18702H18.738Z" fill="#FFFFFE"/>
<path d="M9.47012 11.875C10.7391 11.875 11.7171 11.457 12.5791 11.087C13.3481 10.758 14.0131 10.474 14.8391 10.474C15.2901 10.4782 15.737 10.5586 16.1611 10.712L15.2211 20.662C15.1561 21.442 14.5051 22.042 13.7221 22.042C13.7221 22.042 12.3831 22.107 11.9361 22.107C11.5211 22.107 10.2781 22.042 10.2781 22.042C9.49512 22.042 8.84312 21.442 8.77812 20.662L7.90112 11.658C8.41195 11.8007 8.93973 11.8737 9.47012 11.875Z" fill="#FFDD00"/>
</svg>
