<svg width="470" height="387" viewBox="0 0 470 387" fill="none" xmlns="http://www.w3.org/2000/svg">
<g clip-path="url(#clip0_1_849)">
<path d="M280.445 355.728L273.703 355.728L270.495 329.688L280.446 329.688L280.445 355.728Z" fill="#9E616A"/>
<path d="M282.165 362.272L260.425 362.271V361.996C260.425 359.749 261.317 357.594 262.904 356.005C264.49 354.416 266.643 353.523 268.887 353.523H268.887L282.165 353.524L282.165 362.272Z" fill="#2F2E41"/>
<path d="M256.248 355.728L249.506 355.728L246.299 329.688L256.249 329.688L256.248 355.728Z" fill="#9E616A"/>
<path d="M257.967 362.272L236.228 362.271V361.996C236.228 359.749 237.12 357.594 238.706 356.005C240.293 354.416 242.445 353.523 244.69 353.523H244.69L257.968 353.524L257.967 362.272Z" fill="#2F2E41"/>
<path d="M177.725 173.262C178.264 174.004 178.959 174.619 179.76 175.063C180.562 175.507 181.451 175.77 182.366 175.833C183.28 175.895 184.196 175.757 185.051 175.426C185.906 175.096 186.678 174.582 187.313 173.92L200.653 179.137L205.796 171.792L186.854 164.69C185.673 163.696 184.169 163.17 182.627 163.212C181.085 163.253 179.612 163.86 178.487 164.916C177.362 165.973 176.663 167.406 176.522 168.945C176.382 170.483 176.81 172.019 177.725 173.262Z" fill="#9E616A"/>
<path d="M256.163 217.763L238.598 223.5L244.466 348.058L258.022 348.393L264.959 260.553L266.535 348.047L283.296 348.972L289.475 217.763H256.163Z" fill="#2F2E41"/>
<path d="M244.311 144.338L289.392 134.53L294.405 173.398L290.231 191.97L291.903 220.194C291.903 220.194 256.257 237.959 238.598 223.5C238.598 223.5 252.791 186.17 244.564 168.696L244.311 144.338Z" fill="#E4E4E4"/>
<path d="M252.119 149.835L244.311 144.338C244.311 144.338 243.85 143.698 237.344 151.314C230.838 158.93 217.64 171.045 217.64 171.045L195.642 162.785L191.635 177.611L217.2 189.541L253.395 165.336L252.119 149.835Z" fill="#E4E4E4"/>
<path d="M291.911 234.763C292.74 234.372 293.472 233.803 294.057 233.097C294.642 232.39 295.066 231.565 295.298 230.677C295.529 229.789 295.564 228.862 295.399 227.959C295.234 227.057 294.874 226.202 294.343 225.454L301.946 213.301L295.698 206.873L285.201 224.186C284.005 225.162 283.209 226.543 282.963 228.068C282.716 229.593 283.037 231.155 283.864 232.459C284.691 233.763 285.967 234.718 287.45 235.142C288.934 235.567 290.521 235.432 291.911 234.763Z" fill="#9E616A"/>
<path d="M282.361 142.187L289.392 134.53C289.392 134.53 297.227 131.798 303.628 145.915C310.029 160.031 317.178 188.666 317.178 188.666L300.463 220.906L287.481 215.098L300.463 188.438L286.726 168.696L282.361 142.187Z" fill="#E4E4E4"/>
<path d="M270.438 131.342C277.529 127.46 280.135 118.557 276.259 111.456C272.383 104.355 263.491 101.746 256.4 105.627C249.309 109.509 246.702 118.412 250.579 125.513C254.455 132.614 263.347 135.223 270.438 131.342Z" fill="#9E616A"/>
<path d="M275.759 105.382C275.066 102.472 272.644 100.176 269.857 99.0987C267.07 98.0218 263.967 98.0321 261.022 98.5332C256.134 99.3648 251.569 101.476 247.072 103.565L250.538 105.226L245.754 105.501L249.451 107.415C248.464 108.167 247.713 109.187 247.287 110.354C246.862 111.521 246.779 112.785 247.05 113.997C247.24 114.791 247.748 115.665 248.563 115.692C249.547 115.725 250.061 114.577 250.75 113.872C251.667 112.935 253.115 112.727 254.413 112.903C255.711 113.08 256.943 113.58 258.224 113.857C259.844 114.195 261.517 114.176 263.129 113.802C264.741 113.428 266.252 112.708 267.558 111.691L272.168 122.806C272.124 122.386 272.178 121.963 272.325 121.568C272.472 121.173 272.708 120.818 273.015 120.529C273.322 120.241 273.691 120.028 274.094 119.906C274.497 119.784 274.923 119.757 275.338 119.827C275.753 119.897 276.146 120.062 276.487 120.31C276.827 120.557 277.106 120.88 277.302 121.253C277.497 121.626 277.604 122.04 277.614 122.461C277.623 122.882 277.535 123.3 277.357 123.682C279.353 120.668 280.958 117.244 281.013 113.628C281.068 110.013 279.277 106.204 275.999 104.687" fill="#2F2E41"/>
<path d="M106.171 329.903L99.9375 339.716L103.568 326.941C95.9024 318.932 85.29 313.072 85.29 313.072C85.29 313.072 72.2224 334.578 75.7395 347.806C79.2567 361.034 88.3384 363.56 98.0266 360.977C107.715 358.394 114.34 351.682 110.823 338.453C110.04 335.509 108.34 332.618 106.171 329.903Z" fill="#F2F2F2"/>
<path d="M97.9236 340.694L98.097 341.346C100.073 348.935 100.369 355.189 98.9714 360.021C98.9523 360.092 98.929 360.16 98.9099 360.231L98.5839 360.135L98.2717 360.038C99.8551 354.801 99.1484 348.183 97.4262 341.563C97.3728 341.349 97.3185 341.132 97.2578 340.916C96.504 338.12 95.5805 335.335 94.5753 332.657C94.4993 332.45 94.4192 332.239 94.3391 332.029C92.9941 328.502 91.5243 325.181 90.1626 322.319C90.0673 322.117 89.9688 321.915 89.8711 321.716C87.5464 316.881 85.5758 313.455 85.133 312.699C85.0806 312.605 85.0499 312.555 85.0432 312.543L85.3263 312.374L85.3287 312.37L85.615 312.2C85.6216 312.212 85.7253 312.382 85.9066 312.7C86.5914 313.886 88.4102 317.117 90.5072 321.46C90.6008 321.656 90.6994 321.858 90.7947 322.061C91.9022 324.382 93.0764 326.994 94.1931 329.766C94.4747 330.462 94.7441 331.15 95.0013 331.832C95.0846 332.041 95.1647 332.251 95.2406 332.459C96.3277 335.353 97.222 338.098 97.9236 340.694Z" fill="white"/>
<path d="M90.5072 321.46C90.299 321.547 90.0875 321.634 89.8711 321.716C89.2835 321.939 88.685 322.132 88.0778 322.294C85.4907 322.988 82.7812 323.091 80.149 322.597C80.0591 322.804 79.9692 323.011 79.8769 323.222C82.6528 323.768 85.5165 323.672 88.2494 322.94C88.8976 322.767 89.5363 322.56 90.1626 322.319C90.3758 322.238 90.5873 322.151 90.7947 322.061C92.5095 321.33 94.1035 320.342 95.522 319.131C95.3362 318.99 95.1545 318.852 94.9768 318.716C93.63 319.846 92.1239 320.771 90.5072 321.46Z" fill="white"/>
<path d="M95.0013 331.832C94.7823 331.904 94.5616 331.97 94.3391 332.029C94.2723 332.05 94.2014 332.069 94.1337 332.087C91.3294 332.835 88.3863 332.892 85.5551 332.255C82.7239 331.617 80.0886 330.304 77.8739 328.426C77.7956 328.651 77.7173 328.876 77.6431 329.103C79.9328 330.99 82.6385 332.303 85.5361 332.935C88.4337 333.566 91.4397 333.497 94.3053 332.733C94.3956 332.709 94.4859 332.685 94.5753 332.657C94.8001 332.594 95.0208 332.528 95.2406 332.459C98.6357 331.365 101.644 329.315 103.906 326.554C103.753 326.391 103.599 326.228 103.442 326.066C101.248 328.77 98.3151 330.773 95.0013 331.832Z" fill="white"/>
<path d="M97.9236 340.694C97.7031 340.773 97.4809 340.846 97.2578 340.916C97.0186 340.99 96.7785 341.061 96.5367 341.126C92.7675 342.126 88.7761 341.877 85.1601 340.415C81.5441 338.954 78.4982 336.359 76.4783 333.019C76.4027 333.319 76.3263 333.616 76.2572 333.914C78.4088 337.21 81.5429 339.743 85.2143 341.154C88.8856 342.564 92.9074 342.78 96.7084 341.771C96.9502 341.707 97.1911 341.639 97.4262 341.563C97.6534 341.495 97.8756 341.422 98.097 341.346C102.56 339.774 106.26 336.562 108.447 332.361C108.316 332.14 108.176 331.925 108.035 331.707C105.96 335.905 102.333 339.129 97.9236 340.694Z" fill="white"/>
<path d="M349.31 330.926L343.167 340.596L346.745 328.007C339.191 320.114 328.732 314.34 328.732 314.34C328.732 314.34 315.855 335.533 319.321 348.569C322.787 361.605 331.737 364.094 341.284 361.549C350.831 359.004 357.361 352.389 353.895 339.352C353.123 336.451 351.447 333.602 349.31 330.926Z" fill="#F2F2F2"/>
<path d="M341.183 341.56L341.353 342.203C343.301 349.682 343.593 355.845 342.215 360.607C342.196 360.677 342.173 360.744 342.154 360.814L341.833 360.719L341.526 360.624C343.086 355.463 342.39 348.941 340.692 342.416C340.64 342.206 340.586 341.992 340.526 341.779C339.784 339.024 338.873 336.279 337.883 333.641C337.808 333.436 337.729 333.229 337.65 333.021C336.325 329.546 334.876 326.273 333.534 323.453C333.44 323.253 333.343 323.054 333.247 322.858C330.956 318.093 329.014 314.717 328.578 313.972C328.526 313.88 328.496 313.83 328.489 313.818L328.768 313.652L328.771 313.648L329.053 313.481C329.059 313.493 329.161 313.66 329.34 313.973C330.015 315.142 331.807 318.326 333.874 322.606C333.966 322.799 334.063 322.998 334.157 323.198C335.249 325.486 336.406 328.059 337.506 330.791C337.784 331.477 338.049 332.155 338.303 332.827C338.385 333.033 338.464 333.241 338.539 333.445C339.61 336.297 340.491 339.002 341.183 341.56Z" fill="white"/>
<path d="M333.874 322.606C333.669 322.691 333.46 322.777 333.247 322.858C332.668 323.078 332.078 323.268 331.48 323.428C328.93 324.111 326.26 324.213 323.666 323.726C323.578 323.93 323.489 324.134 323.398 324.342C326.134 324.88 328.956 324.785 331.649 324.064C332.288 323.894 332.917 323.69 333.534 323.453C333.744 323.373 333.953 323.287 334.157 323.198C335.847 322.477 337.418 321.504 338.816 320.311C338.633 320.172 338.454 320.036 338.279 319.902C336.951 321.016 335.467 321.927 333.874 322.606Z" fill="white"/>
<path d="M338.303 332.827C338.087 332.898 337.869 332.963 337.65 333.021C337.584 333.042 337.514 333.061 337.448 333.079C334.684 333.816 331.784 333.872 328.994 333.244C326.204 332.616 323.607 331.321 321.424 329.471C321.347 329.693 321.27 329.914 321.197 330.138C323.453 331.997 326.119 333.292 328.975 333.914C331.83 334.536 334.793 334.468 337.617 333.715C337.706 333.691 337.795 333.668 337.883 333.641C338.104 333.578 338.322 333.513 338.539 333.445C341.884 332.367 344.849 330.347 347.078 327.626C346.927 327.466 346.775 327.305 346.621 327.145C344.459 329.809 341.568 331.784 338.303 332.827Z" fill="white"/>
<path d="M341.183 341.56C340.965 341.639 340.746 341.711 340.526 341.779C340.291 341.852 340.054 341.922 339.816 341.986C336.101 342.971 332.168 342.726 328.604 341.286C325.041 339.846 322.039 337.288 320.049 333.997C319.974 334.293 319.899 334.585 319.831 334.879C321.951 338.127 325.04 340.624 328.658 342.013C332.276 343.403 336.239 343.616 339.985 342.622C340.223 342.559 340.461 342.492 340.692 342.416C340.916 342.35 341.135 342.278 341.353 342.203C345.752 340.653 349.398 337.488 351.553 333.349C351.424 333.131 351.286 332.919 351.147 332.704C349.102 336.841 345.528 340.018 341.183 341.56Z" fill="white"/>
<path d="M222.178 90.6792C222.178 67.548 206.073 48.7966 186.206 48.7966C166.34 48.7966 150.235 67.548 150.235 90.6792C150.235 111.658 163.482 129.034 180.769 132.086V136.033C180.769 136.778 181.064 137.493 181.591 138.021C182.117 138.548 182.832 138.844 183.576 138.844H188.836C189.581 138.844 190.295 138.548 190.821 138.021C191.348 137.493 191.644 136.778 191.644 136.033V132.086C208.93 129.034 222.178 111.658 222.178 90.6792Z" fill="#6246EA"/>
<path d="M179.904 135.462C181.029 134.404 182.37 133.602 183.835 133.111C185.299 132.621 186.852 132.454 188.387 132.621C189.934 132.8 191.418 133.337 192.722 134.189C194.027 135.041 195.116 136.184 195.904 137.529C196.692 138.835 197.187 140.296 197.354 141.812C197.522 143.327 197.358 144.862 196.875 146.308C195.929 149.192 193.919 151.592 191.859 153.756C189.697 156.025 187.346 158.118 185.314 160.51C181.963 164.478 179.623 169.2 178.495 174.272C177.367 179.344 177.484 184.614 178.837 189.631C180.62 195.989 184.301 201.65 189.388 205.854C190.034 206.382 190.699 206.886 191.383 207.364C192.175 207.919 192.925 206.619 192.14 206.068C186.617 202.156 182.536 196.531 180.527 190.063C179.004 185.023 178.809 179.673 179.961 174.535C181.114 169.397 183.574 164.645 187.104 160.741C189.247 158.371 191.648 156.249 193.791 153.879C195.843 151.608 197.715 149.046 198.517 146.045C198.923 144.52 199.023 142.929 198.813 141.364C198.602 139.8 198.085 138.292 197.29 136.929C196.499 135.535 195.429 134.32 194.147 133.359C192.865 132.399 191.399 131.714 189.841 131.347C186.705 130.665 183.427 131.233 180.703 132.931C180.036 133.358 179.413 133.85 178.844 134.401C178.148 135.072 179.209 136.133 179.904 135.462Z" fill="#3F3D56"/>
<path d="M83.5622 73.1406C72.5557 47.805 45.9935 34.9499 24.2337 44.428C2.47381 53.9061 -6.24348 82.1281 4.76293 107.464C14.7453 130.442 37.5234 143.153 57.9092 138.249L59.7873 142.572C60.142 143.389 60.8063 144.031 61.6339 144.357C62.4614 144.684 63.3846 144.667 64.2002 144.312L69.9613 141.803C70.7769 141.447 71.4182 140.782 71.744 139.954C72.0698 139.125 72.0536 138.201 71.6988 137.384L69.8207 133.061C87.3022 121.471 93.5445 96.1189 83.5622 73.1406Z" fill="#6246EA"/>
<path d="M58.4584 142.231C59.1735 140.581 60.2268 139.101 61.5499 137.884C62.8731 136.668 64.4366 135.744 66.1392 135.172C67.8111 134.608 69.5858 134.417 71.3392 134.612C73.0925 134.807 74.7821 135.384 76.2896 136.301C77.8427 137.222 79.1818 138.465 80.2176 139.945C81.2534 141.425 81.9622 143.11 82.2966 144.886C83.0648 149.002 81.8184 153.195 80.402 157.028C78.9172 161.046 77.0671 164.947 76.0347 169.119C74.5979 174.983 74.5689 181.104 75.9499 186.981C77.3309 192.859 80.0827 198.324 83.9799 202.931C88.8883 208.627 95.3528 212.761 102.578 214.824C103.464 215.074 104.359 215.288 105.262 215.471C106.204 215.662 106.606 214.216 105.66 214.024C98.1431 212.474 91.2925 208.624 86.0561 203.006C80.5051 196.996 77.1517 189.281 76.5431 181.118C76.2172 176.982 76.5958 172.82 77.6627 168.812C78.8015 164.581 80.7292 160.621 82.1826 156.499C83.5694 152.566 84.5522 148.343 83.6809 144.181C82.8798 140.516 80.659 137.319 77.5061 135.293C75.9951 134.295 74.3011 133.608 72.5226 133.272C70.7441 132.936 68.9165 132.956 67.1462 133.333C63.5307 134.153 60.3631 136.322 58.2878 139.398C57.783 140.165 57.356 140.98 57.0131 141.832C56.6446 142.724 58.0941 143.112 58.4584 142.231Z" fill="#3F3D56"/>
<path d="M391.016 379.159L399.095 379.158L402.938 347.955L391.014 347.956L391.016 379.159Z" fill="#FFB6B6"/>
<path d="M388.955 376.517L404.865 376.517H404.866C407.555 376.517 410.134 377.586 412.035 379.49C413.937 381.394 415.005 383.976 415.005 386.669V386.999L388.955 387L388.955 376.517Z" fill="#2F2E41"/>
<path d="M343.198 372.279L350.901 374.719L363.964 346.13L352.595 342.529L343.198 372.279Z" fill="#FFB6B6"/>
<path d="M342.028 369.139L357.198 373.943L357.199 373.943C359.762 374.756 361.899 376.554 363.138 378.944C364.378 381.334 364.618 384.118 363.808 386.685L363.708 387L338.871 379.133L342.028 369.139Z" fill="#2F2E41"/>
<path d="M361.388 236.652L356.905 249.313L356.778 317.664L344.064 364.462L359.671 368.824L376.911 324.697L382.44 285.939L389.727 324.923L388.724 371.257H405.099L406.335 299.855C406.682 279.802 403.178 259.869 396.013 241.141L361.388 236.652Z" fill="#2F2E41"/>
<path d="M356.049 185.365H382.516L393.576 196.439L396.88 242.213L356.905 248.655L344.064 204.979L351.057 186.418L356.049 185.365Z" fill="#E4E4E4"/>
<path d="M346.531 205.416L305.78 190.064L304.719 183.717L330.419 161.942L338.973 168.367L323.469 185.365L351.057 186.418L346.531 205.416Z" fill="#E4E4E4"/>
<path d="M335.361 170.849C339.001 170.849 341.951 167.894 341.951 164.25C341.951 160.606 339.001 157.652 335.361 157.652C331.722 157.652 328.772 160.606 328.772 164.25C328.772 167.894 331.722 170.849 335.361 170.849Z" fill="#FFB6B6"/>
<path d="M350.644 172.563L353.622 159.118C354.144 156.75 355.127 154.508 356.515 152.521C357.902 150.533 359.668 148.84 361.71 147.536C363.752 146.232 366.03 145.344 368.415 144.922C370.8 144.501 373.244 144.554 375.609 145.079C377.973 145.604 380.211 146.591 382.194 147.982C384.177 149.374 385.867 151.143 387.167 153.189C388.467 155.235 389.352 157.517 389.771 159.906C390.189 162.294 390.134 164.742 389.607 167.109L386.629 180.554C386.487 181.195 386.095 181.754 385.542 182.107C384.988 182.46 384.317 182.579 383.677 182.437L352.525 175.52C351.885 175.377 351.327 174.985 350.974 174.431C350.621 173.876 350.503 173.205 350.644 172.563Z" fill="#2F2E41"/>
<path d="M371.159 177.631C378.326 175.551 382.453 168.047 380.376 160.87C378.3 153.693 370.805 149.56 363.638 151.64C356.47 153.72 352.343 161.224 354.42 168.401C356.497 175.578 363.991 179.71 371.159 177.631Z" fill="#FFB6B6"/>
<path d="M349.127 159.248C349.968 155.471 352.271 152.181 355.531 150.102C358.791 148.023 362.742 147.323 366.516 148.157L369.202 148.753C372.975 149.595 376.259 151.902 378.336 155.166C380.412 158.43 381.111 162.386 380.278 166.166L380.219 166.434L374.544 165.174L373.81 159.317L372.221 164.658L369.288 164.007L368.918 161.052L368.116 163.747L349.068 159.517L349.127 159.248Z" fill="#2F2E41"/>
<path d="M362.771 179.381C362.584 178.96 362.52 178.496 362.586 178.041C362.651 177.585 362.844 177.158 363.142 176.807C367.188 172.019 373.391 162.889 369.47 155.538L369.188 155.01L384.542 158.42L379.43 181.502L364.936 180.869C364.789 180.863 364.643 180.844 364.5 180.812C364.119 180.727 363.764 180.554 363.463 180.305C363.163 180.056 362.925 179.739 362.771 179.381Z" fill="#2F2E41"/>
<path d="M381.464 185.642L424.57 191.779L426.98 197.745L406.608 224.582L396.867 220.169L408.319 200.208L381.16 205.172L381.464 185.642Z" fill="#E4E4E4"/>
<path d="M446 98.6325C446 71.0037 426.764 48.6061 403.034 48.6061C379.305 48.6061 360.068 71.0037 360.068 98.6325C360.068 123.691 375.892 144.445 396.539 148.09V152.805C396.539 153.695 396.893 154.55 397.522 155.179C398.15 155.809 399.003 156.163 399.893 156.163H406.175C407.065 156.163 407.918 155.809 408.547 155.179C409.176 154.55 409.529 153.695 409.529 152.805V148.09C430.176 144.445 446 123.691 446 98.6325Z" fill="#6246EA"/>
<path d="M395.403 152.02C396.767 150.736 398.394 149.765 400.17 149.172C401.946 148.58 403.83 148.381 405.69 148.589C407.518 148.805 409.273 149.434 410.822 150.43C412.371 151.425 413.673 152.76 414.63 154.334C415.604 155.887 416.231 157.634 416.467 159.453C416.703 161.272 416.542 163.12 415.996 164.871C414.936 168.308 412.61 171.186 410.184 173.765C407.597 176.517 404.763 179.033 402.289 181.892C398.256 186.585 395.422 192.188 394.031 198.22C392.639 204.252 392.731 210.532 394.299 216.52C396.397 224.216 400.829 231.071 406.984 236.137C407.732 236.747 408.501 237.328 409.292 237.88C410.084 238.435 410.834 237.134 410.048 236.584C403.457 231.919 398.575 225.219 396.151 217.51C394.31 211.492 394.049 205.101 395.393 198.953C396.737 192.805 399.642 187.108 403.825 182.412C406.368 179.569 409.232 177.037 411.804 174.223C414.267 171.527 416.528 168.501 417.54 164.939C418.049 163.14 418.197 161.257 417.975 159.401C417.753 157.544 417.166 155.75 416.247 154.122C415.332 152.457 414.083 151 412.579 149.841C411.075 148.682 409.348 147.847 407.507 147.388C403.765 146.527 399.834 147.179 396.57 149.204C395.77 149.711 395.024 150.299 394.343 150.959C393.648 151.631 394.709 152.692 395.403 152.02Z" fill="#3F3D56"/>
<path d="M400.6 232.214C404.239 232.214 407.19 229.26 407.19 225.616C407.19 221.972 404.239 219.017 400.6 219.017C396.96 219.017 394.01 221.972 394.01 225.616C394.01 229.26 396.96 232.214 400.6 232.214Z" fill="#FFB6B6"/>
<path d="M331.93 166.103C331.585 166.65 330.747 166.57 330.277 166.228C329.624 165.753 329.835 164.838 330.285 164.298C331.714 162.58 334.078 164.394 334.397 166.1C334.515 166.932 334.387 167.78 334.029 168.54C333.67 169.3 333.097 169.937 332.38 170.374C330.749 171.341 328.631 170.856 327.229 169.698C324.305 167.282 325.101 162.446 328.349 160.698C330.422 159.583 333.043 160.072 335.085 161.007C337.384 162.058 339.361 163.67 341.487 165.014C346.152 167.938 351.428 169.742 356.905 170.285C357.863 170.383 357.856 168.882 356.905 168.785C353.87 168.47 350.891 167.752 348.046 166.649C345.231 165.506 342.559 164.038 340.085 162.274C337.582 160.556 334.967 158.887 331.869 158.603C330.619 158.457 329.353 158.645 328.199 159.147C327.045 159.65 326.044 160.45 325.299 161.466C324.636 162.374 324.192 163.424 324.003 164.534C323.813 165.643 323.882 166.781 324.205 167.859C324.594 168.986 325.275 169.99 326.178 170.768C327.08 171.546 328.173 172.071 329.344 172.289C330.471 172.502 331.636 172.358 332.678 171.876C333.719 171.394 334.585 170.599 335.153 169.601C336.293 167.627 336.256 164.974 334.534 163.337C334.04 162.835 333.422 162.472 332.743 162.287C332.064 162.102 331.348 162.101 330.668 162.284C330.042 162.496 329.491 162.886 329.082 163.407C328.674 163.927 328.426 164.556 328.368 165.215C328.202 167.778 331.836 169.06 333.225 166.86C333.742 166.041 332.445 165.287 331.93 166.103Z" fill="#3F3D56"/>
<path d="M32.0725 246.758L30.0931 249.245L23.0917 245.098L25.0711 242.61L32.0725 246.758Z" fill="#E4E4E4"/>
<path d="M39.3783 257.444L41.1269 260.057L33.7717 263.72L32.0231 261.107L39.3783 257.444Z" fill="#E4E4E4"/>
<path d="M46.9922 246.085L50.4864 246.208L50.1387 253.529L46.6445 253.406L46.9922 246.085Z" fill="#E4E4E4"/>
<path d="M114.507 48.6532L112.528 51.1401L105.526 46.9929L107.506 44.5056L114.507 48.6532Z" fill="#E4E4E4"/>
<path d="M121.813 59.3389L123.561 61.9518L116.206 65.6152L114.458 63.0023L121.813 59.3389Z" fill="#E4E4E4"/>
<path d="M129.427 47.9799L132.921 48.1035L132.573 55.4243L129.079 55.3008L129.427 47.9799Z" fill="#E4E4E4"/>
<path d="M308.853 74.667L306.874 77.1538L299.872 73.0066L301.851 70.5193L308.853 74.667Z" fill="#E4E4E4"/>
<path d="M316.159 85.3527L317.907 87.9655L310.552 91.629L308.803 89.0161L316.159 85.3527Z" fill="#E4E4E4"/>
<path d="M323.773 73.9937L327.267 74.1172L326.919 81.4381L323.425 81.3145L323.773 73.9937Z" fill="#E4E4E4"/>
<path d="M249.4 38.1477L247.421 40.6345L240.419 36.4873L242.399 34L249.4 38.1477Z" fill="#E4E4E4"/>
<path d="M256.706 48.8333L258.454 51.4462L251.099 55.1097L249.351 52.4968L256.706 48.8333Z" fill="#E4E4E4"/>
<path d="M264.32 37.4743L267.814 37.5979L267.466 44.9188L263.972 44.7952L264.32 37.4743Z" fill="#E4E4E4"/>
<path d="M309.845 225.101L307.865 227.988L314.867 232.802L316.847 229.915L309.845 225.101Z" fill="#E4E4E4"/>
<path d="M316.797 246.57L318.546 249.603L325.901 245.351L324.152 242.318L316.797 246.57Z" fill="#E4E4E4"/>
<path d="M331.418 237.631L334.913 237.774L335.261 229.277L331.766 229.133L331.418 237.631Z" fill="#E4E4E4"/>
<path d="M161.321 356.106L167.374 355.168L163.224 306.743L149.735 309.244L161.321 356.106Z" fill="#FFB6B6"/>
<path d="M159.472 354.366L171.392 352.52C173.407 352.208 175.464 352.711 177.109 353.917C178.753 355.123 179.853 356.933 180.164 358.951L180.202 359.198L160.685 362.22L159.472 354.366Z" fill="#2F2E41"/>
<path d="M97.7035 355.506L103.823 355.766L111.266 312.745L97.7764 312.746L97.7035 355.506Z" fill="#FFB6B6"/>
<path d="M96.2274 353.438L108.279 353.952H108.279C110.316 354.039 112.235 354.933 113.614 356.437C114.993 357.94 115.719 359.931 115.632 361.97L115.622 362.22L95.8897 361.378L96.2274 353.438Z" fill="#2F2E41"/>
<path d="M109.752 215.341C109.463 215.26 109.167 215.205 108.869 215.177L112.683 183.91L125.628 156.461C126.442 154.734 126.572 152.763 125.992 150.944C125.412 149.125 124.164 147.594 122.501 146.66C120.837 145.726 118.882 145.458 117.03 145.911C115.177 146.363 113.564 147.502 112.518 149.098C109.125 154.271 106.559 159.941 104.911 165.905L99.4731 185.594L103.45 219.358C103.297 220.31 103.423 221.285 103.811 222.167C104.199 223.049 104.833 223.8 105.638 224.33C106.442 224.859 107.382 225.145 108.345 225.152C109.307 225.159 110.251 224.887 111.063 224.369C111.875 223.852 112.521 223.11 112.922 222.234C113.323 221.358 113.462 220.384 113.324 219.431C113.185 218.477 112.774 217.583 112.141 216.858C111.507 216.132 110.677 215.606 109.752 215.341Z" fill="#FFB6B6"/>
<path d="M117.611 186.556L101.257 167.823L109.359 148.742C110.419 146.243 112.414 144.259 114.915 143.212C117.417 142.165 120.228 142.138 122.749 143.138C125.27 144.138 127.301 146.085 128.409 148.563C129.516 151.041 129.613 153.855 128.677 156.403L117.611 186.556Z" fill="#2F2E41"/>
<path d="M144.796 126.836C148.731 119.629 146.086 110.593 138.888 106.653C131.69 102.713 122.666 105.362 118.731 112.569C114.797 119.776 117.442 128.812 124.64 132.752C131.837 136.692 140.862 134.043 144.796 126.836Z" fill="#FFB6B6"/>
<path d="M134.247 101.634H124.653C118.363 101.634 113.264 107.378 113.264 114.464L113.708 131.65C120.504 132.497 127.152 134.277 133.463 136.941L134.358 133.111L136.125 138.154C137.696 138.917 139.254 139.75 140.798 140.655C138.995 132.175 138.253 123.714 139.491 117.142H142.741V113.581L143.844 117.142H149.735C149.735 115.106 149.335 113.089 148.556 111.208C147.778 109.326 146.637 107.616 145.199 106.176C143.761 104.736 142.053 103.594 140.174 102.815C138.295 102.035 136.281 101.634 134.247 101.634Z" fill="#2F2E41"/>
<path d="M165.531 309.374L164.141 309.709L162.975 287.983L154.481 222.948L144.739 198.185L149.485 180.926C149.485 180.926 154.981 168.92 141.242 159.665L130.251 141.155C122.658 136.184 116.411 139.434 113.082 147.884C110.18 155.246 107.928 164.559 109.267 174.173C112.268 195.707 114.763 198.185 114.763 198.185C114.763 198.185 96.0277 218.946 100.025 245.46L97.797 314.109L95.7591 314.025L95.5359 319.478L113.34 320.208L113.563 314.756L112.086 314.695L118.51 287.482L128.002 251.463L144.489 295.487L150.035 313.111L148.208 313.551L149.484 318.857L166.807 314.679L165.531 309.374Z" fill="#2F2E41"/>
<path d="M177.766 186.101C177.564 186.323 177.383 186.563 177.224 186.818L150.994 169.43L132.253 145.571C131.074 144.07 129.371 143.072 127.487 142.779C125.602 142.486 123.677 142.92 122.099 143.993C120.521 145.065 119.409 146.697 118.985 148.559C118.562 150.421 118.859 152.374 119.817 154.025C122.923 159.375 126.842 164.208 131.435 168.348L146.596 182.017L178.539 193.541C179.321 194.103 180.249 194.426 181.21 194.473C182.172 194.519 183.126 194.286 183.959 193.802C184.791 193.318 185.466 192.604 185.902 191.744C186.339 190.885 186.518 189.918 186.418 188.96C186.319 188.001 185.945 187.092 185.341 186.341C184.737 185.59 183.93 185.03 183.016 184.728C182.102 184.426 181.12 184.395 180.189 184.638C179.257 184.882 178.416 185.39 177.766 186.101Z" fill="#FFB6B6"/>
<path d="M155.56 166.199L131.516 172.479L118.088 156.696C116.329 154.629 115.447 151.956 115.629 149.247C115.812 146.538 117.044 144.008 119.064 142.196C121.084 140.385 123.73 139.435 126.439 139.55C129.148 139.665 131.705 140.836 133.564 142.813L155.56 166.199Z" fill="#2F2E41"/>
<path d="M341.926 362.73H18.5354C18.3776 362.73 18.2263 362.667 18.1148 362.555C18.0032 362.444 17.9405 362.292 17.9405 362.134C17.9405 361.976 18.0032 361.825 18.1148 361.713C18.2263 361.601 18.3776 361.538 18.5354 361.538H341.926C342.084 361.538 342.235 361.601 342.346 361.713C342.458 361.825 342.521 361.976 342.521 362.134C342.521 362.292 342.458 362.444 342.346 362.555C342.235 362.667 342.084 362.73 341.926 362.73Z" fill="#CACACA"/>
</g>
<defs>
<clipPath id="clip0_1_849">
<rect width="446" height="353" fill="white" transform="translate(0 34)"/>
</clipPath>
</defs>
</svg>
